<svg xmlns="http://www.w3.org/2000/svg" viewBox="0 0 399.76 339.62"><defs><style>.a{fill:#005e8b;}.a,.b,.c,.d{fill-rule:evenodd;}.b{fill:#003f6e;}.c{fill:#197aa1;}.d{fill:#65a2bd;}.e{fill:#008bd2;}</style></defs><path class="a" d="M188,.34c-23.79,2.93-43.36,23-40.7,50.24,2.34,23.93,23.68,42.88,50,40.59a45.45,45.45,0,0,0,40.81-50.06C235.75,18.18,214.58-2.94,188,.34Z"/><path class="b" d="M162.58,215.37l-2.5-2.53c-.87-.74-1.57-1.23-2.44-2.06-13-12.38-21.27-26.39-16.1-46.43,4.69-18.17,20.42-31.64,36-39.22,25.15-12.26,39.89-9.9,60.52-14.78a168,168,0,0,0,28.26-9.16l21.27-16.8c-1.48.7-4.81,3.33-6.65,4.48-2.24,1.42-4.81,2.49-7.2,3.76-14,7.44-36.61,11.82-52.43,13.33-28.46,2.71-63.3,9.55-85.45,24.78-28.12,19.33-29.64,47.39-2.51,69C139.78,204.9,153,212.68,162.58,215.37Z"/><path class="c" d="M156.67,53.9c.45-1,.08-.47.57-1.3,1.71-2.9,1-.48,2.55-4.83.93-2.64,1.64-1.64,3.4-3.29,2-1.9.78-1.49,4.71-3l1.06-.42a4.5,4.5,0,0,1,1.68-.3,78.94,78.94,0,0,1,9.14.15c4.87.22,12.41-.5,17.83-.67,1.94,0,4.93-1.79,10.26-.34l4,2-.31,3.81,4,.84-15.92,6.63c-9.32,3.34-15.23,2.55-18.86,3.45l-.12,2.47,5.25,3.81c.73.87.21-.08.13.5,0,0-.08.13-.09.16l-.23.5c.14,1,3.62,1.68,5.33,3.68s2.33.93,4.41,2.09c1.27.71,1,.75,1.82,1.15l3.34,1.15c6,2.07,12.83,2.39,18.84-.61l1-.54,4.17-2.31a5.15,5.15,0,0,0,1.64-1.89c.41-.6.77-1,1.23-1.78l1.33-2.18c.47-.74.69-.93,1.18-1.79a15.49,15.49,0,0,0,1.86-7.85c.12-6.39-1.57-6.89-.4-10.86l-7.5-.67,4.93-5.82c-1.94-1-2,1.63-1.92-4.6l-2.34-1c-.14-3.46-.82-4-3.3-6.2l-1.85-1.64c-2.1.89,2-1.2-.69.61-.83.57,0,.34-1.19.57-.14,0-2.31-.2-2.39-.22-1-.26-1.05-.41-2.15-.77l-1.78-.56c-1.76-.43-3.5.33-5.19.53l-3.31,0c-1.82-.22-2.72-1.72-4.6-1.71-1.69,0-.79.43-2.58.81s-3.64-.09-5.36.16l-2.25.73c-2.51.75-5.21.64-7.31,2.14-.77.55-3.29,1.83-4.19,2.78L175,28.64l-.6.39c-2.74,1.47-.77-1-4.12,1.82l-3.22,2.29c-3.17,3-2.09-.44-7.37,7.14l-3.05,3.36c-.07.06-.2.15-.27.22a6.09,6.09,0,0,0-1.87,4.68c0,.46.12,2.72.2,3.17C155.21,54.47,155.33,53.61,156.67,53.9Z"/><path class="b" d="M257.4,259a47.82,47.82,0,0,1-4.4,10.41c-1.57,2.5-5.38,7.18-5.78,8.82,2.93-.91,6.23-4.28,8.84-5.76l7.25-7.74c7.65-8.35,12.83-21.62,13.45-33.65,1.92-36.82-29.84-56.36-63.31-62.14-13.45-2.32-30.65-8.61-39.24-19.5-.43-.54-.43-.58-.9-1.1l-1.09-1.07c1.52,10.63,17.23,19.6,26.93,24.12,11.57,5.4,21.12,4.27,36.25,15.07C251.06,197.6,260.65,216.25,261,237,261.08,243.31,259.94,254.18,257.4,259Z"/><path class="b" d="M170.66,213.09c2.22,3.89,9.7,9.43,14.69,11.94,9.86,5,33.57-17.54,49.83-21.83,5-1.32,3.18-.44,5.48-1.58C237,195.84,232,192,226.58,188.23c-7.93-5.52-34.24,16.22-45.57,21l-10,3.62A3.61,3.61,0,0,0,170.66,213.09Z"/><path class="b" d="M148.82,187.17a37,37,0,0,0,9.46,15.07c2.08,2,4.08,1.08,8.9-.23,8.39-2.29,33.07-15.25,42.13-19.71l-1.72-1.05c-4.35-1.8-6.92-2.08-13.22-5.17-7.72-3.78-5.41-4.87-15.32-1.64-8.55,2.8-13,7.48-21.56,10.35-3.26,1.08-6.18,1.32-8.31,2.2A2,2,0,0,0,148.82,187.17Z"/><path class="d" d="M194,60.83c0,4,.27,4.85,3.37,6.12,4.59,1.46,12,3.11,16,.34l4.79-4.7c1.46-1.49,3.27-.61,3.62-5.51.31-4.38.54-6.9-2.28-7.56-4.27-1-12.69,4.81-19.45,7.85-1,.45-2.06,1-3,1.48A24.77,24.77,0,0,0,194,60.83Z"/><path class="e" d="M45.88,316.61a22.94,22.94,0,1,1-22.94-23A23,23,0,0,1,45.88,316.61Zm-36.08,0a13.07,13.07,0,1,0,13.14-13A13.09,13.09,0,0,0,9.8,316.61Z"/><path class="e" d="M96.33,338.83H85.55L63.06,311.65v27.18H52.28V294.39H63.06l22.49,27.13V294.39H96.33Z"/><path class="e" d="M148.35,328.05a23.82,23.82,0,0,1-20.78,11.57c-13.92,0-24-10.2-24-23.33,0-12.35,10.13-22.68,24-22.68,9.47,0,16.92,4.44,20.91,11.11L139.4,310c-2.09-4.05-6.21-6.73-11.83-6.73a12.73,12.73,0,0,0-13.2,13,13.08,13.08,0,0,0,13.2,13.26,12.93,12.93,0,0,0,11.7-6.73Z"/><path class="e" d="M197.23,316.61a22.94,22.94,0,1,1-22.94-23A23,23,0,0,1,197.23,316.61Zm-36.07,0a13.07,13.07,0,1,0,13.13-13A13.08,13.08,0,0,0,161.16,316.61Z"/><path class="e" d="M261.67,303.35l-9.28,4.7c-2.22-2.81-5.69-4.38-10.78-4.38-7.78,0-13.2,5.43-13.2,12.81a13.1,13.1,0,0,0,13.33,13.14c4.77,0,8.56-1.5,10.91-3.73v-4.31H239.12v-8.23h23v16.47c-.33.65-7.32,9.8-20.33,9.8-14.7,0-24.18-11.05-24.18-23,0-12.35,10.13-23,24.12-23A24.43,24.43,0,0,1,261.67,303.35Z"/><path class="e" d="M304.28,294.39v9.94H281V312h19.47v9.28H281v7.65h23.33v9.93h-34V294.39Z"/><path class="e" d="M356.36,338.83H345.58L323.1,311.65v27.18H312.32V294.39H323.1l22.48,27.13V294.39h10.78Z"/><path class="e" d="M399.76,294.39v9.94H376.43V312H395.9v9.28H376.43v7.65h23.33v9.93H365.71V294.39Z"/></svg>